<svg xmlns="http://www.w3.org/2000/svg" width="400.94" height="292.14" viewBox="0 0 400.94 292.14">
  <defs>
    <style>
      .a {
        fill: #fbb03b;
      }
    </style>
  </defs>
  <title>logo</title>
  <g>
    <path class="a" d="M198.16,141v-1c14.73-4.21,25.77-18.93,25.77-40.76,0-35.5-24.71-47.33-54.43-47.33H118.62a8.28,8.28,0,0,0-8.28,8.28V227.94a8.28,8.28,0,0,0,8.28,8.28h49c49.17,0,65.47-25,65.47-53.37C233.13,156.55,217.1,143.41,198.16,141ZM136.37,79.36a4.85,4.85,0,0,1,4.84-4.85H165.3c21,0,32.6,9,32.6,27.88,0,19.45-10,29.18-32.34,29.18H142a5.59,5.59,0,0,1-5.59-5.59Zm34.45,134.25H144.65a8.28,8.28,0,0,1-8.28-8.28v-42.6a8.28,8.28,0,0,1,8.28-8.28H169.5c19.72,0,36.55,6.57,36.55,29.71C206.05,203.36,195.53,213.61,170.82,213.61Z"/>
    <g>
      <path class="a" d="M54.94,167.18c5.69-25.09-13-33-19-35s-14.09-6.28-14-6c0,0-4,37,32,45Z"/>
      <path class="a" d="M72.37,203.51c-9.09-24-25.43-20.34-34.32-19.36-6,.67-14.73,2.1-14.51,2.3,0,0,16.4,33.72,50.2,20.93Z"/>
      <path class="a" d="M54.94,123.18c9.37-14.85,1.35-24.87-5-31-3-2.9-6-6-6-6-1,1-12.74,28.18,9.27,39.81Z"/>
      <path class="a" d="M67.26,87.88C76.57,81,74.13,73,71.76,67.72c-1.12-2.49-2.19-5.1-2.19-5.1-.85.37-14.6,14.19-4,26.57Z"/>
      <path class="a" d="M100.24,231.3c-11-16-21.31-13.5-33-8a94,94,0,0,1-9.28,3.45s18.23,23.47,43.93,7.39Z"/>
    </g>
    <path class="a" d="M107.13,3.14A152.86,152.86,0,0,1,150.43.53l5.44.53c1.82.16,3.61.53,5.42.79,3.62.48,7.18,1.34,10.76,2.07,1.79.4,3.54.92,5.31,1.37L180,6c.89.23,1.75.54,2.62.81l5.24,1.68L193,10.42l2.58,1,2.52,1.11c1.68.75,3.37,1.47,5,2.25,3.27,1.67,6.61,3.23,9.77,5.12,1.59.93,3.23,1.77,4.77,2.78l4.66,3c1.57,1,3,2.1,4.55,3.15s3,2.11,4.46,3.28l4.36,3.42,4.18,3.64c.69.62,1.4,1.21,2.07,1.84l2,1.93c1.31,1.3,2.69,2.54,4,3.9a166.13,166.13,0,0,1,14.29,17,159.57,159.57,0,0,1,11.62,19c.89,1.64,1.61,3.36,2.42,5l1.17,2.54c.38.85.7,1.73,1.06,2.59.69,1.73,1.39,3.46,2.06,5.21l1.79,5.31a133.74,133.74,0,0,1,5.07,21.83l.43,2.78c.11.93.19,1.86.28,2.79.17,1.86.37,3.73.52,5.6.14,3.74.36,7.49.21,11.24,0,1.87,0,3.75-.21,5.62s-.25,3.74-.43,5.61l-.72,5.57-.18,1.39-.25,1.38-.5,2.76-.51,2.76c-.18.92-.42,1.82-.63,2.74-.44,1.82-.83,3.65-1.32,5.46l-1.56,5.39c-.51,1.8-1.19,3.55-1.78,5.32a146,146,0,0,1-9,20.54,150.72,150.72,0,0,1-11.85,19,154.76,154.76,0,0,1-31.38,31.82,145,145,0,0,1-39.36,21.24,138.71,138.71,0,0,1-88.07,1.14,145.85,145.85,0,0,1-20.59-8.45c-3.34-1.62-6.54-3.48-9.75-5.33l-4.69-3c-1.56-1-3-2.11-4.56-3.16a156.73,156.73,0,0,1-17-14.15A155.27,155.27,0,0,1,29.85,235a143.51,143.51,0,0,1-12-18.42,138,138,0,0,1-9.12-19.91,153.29,153.29,0,0,1-6-21A157.39,157.39,0,0,1,0,154.18a170.58,170.58,0,0,0,4.36,21.13,152.77,152.77,0,0,0,7.22,20.21,147.76,147.76,0,0,0,10,18.89,138.68,138.68,0,0,0,12.52,17.2,154.49,154.49,0,0,0,14.74,15.23,150,150,0,0,0,16.79,12.83A139.81,139.81,0,0,0,84,269.92a137.59,137.59,0,0,0,19.64,7.39,139.16,139.16,0,0,0,20.49,4.19,126.43,126.43,0,0,0,20.84,1,128.63,128.63,0,0,0,40.72-7.91l4.86-1.87,4.77-2.09c1.61-.66,3.14-1.47,4.69-2.25s3.13-1.51,4.61-2.41l4.53-2.57,4.4-2.79c1.49-.9,2.88-1.94,4.3-2.94s2.86-2,4.2-3.08a144.62,144.62,0,0,0,29-29.76,139.81,139.81,0,0,0,11.12-17.62,135.22,135.22,0,0,0,8.45-19c.55-1.64,1.2-3.26,1.68-4.93l1.48-5c.47-1.67.83-3.37,1.26-5.05.2-.84.43-1.68.6-2.53l.48-2.56.48-2.56.24-1.28L277,163l.7-5.15c.27-3.45.71-6.9.74-10.37.2-3.46.05-6.93,0-10.39-.11-1.73-.26-3.46-.39-5.18-.07-.86-.12-1.73-.21-2.59l-.35-2.58a123.94,123.94,0,0,0-4.35-20.35l-1.57-5-1.84-4.89c-.32-.81-.6-1.64-.94-2.44l-1.06-2.39-1.05-2.39c-.35-.8-.68-1.61-1.09-2.38a150.76,150.76,0,0,0-10.39-18.2,158,158,0,0,0-13-16.5c-1.16-1.32-2.43-2.53-3.64-3.81l-1.84-1.89c-.62-.63-1.28-1.2-1.92-1.81l-3.86-3.61-4-3.43c-1.32-1.17-2.73-2.23-4.12-3.31s-2.76-2.2-4.22-3.19l-4.35-3c-1.44-1-3-1.89-4.47-2.85-3-1.94-6.1-3.56-9.19-5.31-1.57-.82-3.17-1.57-4.75-2.36l-2.38-1.18L191,15.38l-4.88-2.13-5-1.89c-.83-.3-1.65-.65-2.5-.92l-2.54-.82C174.38,9.1,172.7,8.5,171,8c-3.44-.89-6.86-1.91-10.37-2.57-1.75-.35-3.48-.78-5.24-1.06l-5.29-.86c-1.76-.33-3.54-.45-5.32-.66s-3.56-.44-5.34-.53c-3.57-.18-7.16-.47-10.74-.4A169.92,169.92,0,0,0,107.13,3.14Z"/>
    <path class="a" d="M323.8,199.59v22.64c0,4.51,1.38,7.55,4.88,7.55h0a1.29,1.29,0,0,1,1.29,1.29v3.07a1.28,1.28,0,0,1-1,1.25,6.9,6.9,0,0,1-1.62.19c-4.61,0-7.48-2.3-8.82-5.35a.55.55,0,0,0-.87-.19c-1.82,1.59-7.69,6.19-14.69,6.19-9.29,0-14.45-6.53-14.45-13.34,0-10.77,10.34-16.2,27.33-16.2a1.29,1.29,0,0,0,1.28-1.29v-4.13c0-8.19-4-10.58-10.58-10.58-5.76,0-8.95,2.71-10.67,5a1.28,1.28,0,0,1-1.82.23l-3.17-2.5a1.28,1.28,0,0,1-.21-1.82c2.21-2.71,6.94-7.16,16-7.16C317.45,184.41,323.8,189.11,323.8,199.59Zm-6.62,14a1.29,1.29,0,0,0-1.27-1.29c-11.44-.21-20.26,2.79-20.26,10.07,0,4.42,3.22,8,9,8h.61a12.61,12.61,0,0,0,11.91-12.69Z"/>
    <path class="a" d="M344.32,222.41V194a2.51,2.51,0,0,0-2.51-2.51h-2.43a2.51,2.51,0,0,1-2.51-2.51h0a2.51,2.51,0,0,1,2.05-2.47l3.59-.67a2.63,2.63,0,0,0,2.11-2.14l1.54-9.07a2.51,2.51,0,0,1,2.48-2.09h.24a2.51,2.51,0,0,1,2.51,2.51v9.1A1.54,1.54,0,0,0,353,185.7h9.75a2.51,2.51,0,0,1,2.51,2.51V189a2.51,2.51,0,0,1-2.51,2.51h-8.78a2.51,2.51,0,0,0-2.51,2.51v28c0,5.61,2.85,7.91,7.27,7.91a19.12,19.12,0,0,0,4.62-.5,3.6,3.6,0,0,1,4.28,2.29h0A2.51,2.51,0,0,1,366,235a26.9,26.9,0,0,1-8.91,1.26C348.83,236.22,344.32,231.89,344.32,222.41Z"/>
    <path class="a" d="M377.55,222.41V194A2.51,2.51,0,0,0,375,191.5h-2.43A2.51,2.51,0,0,1,370.1,189h0a2.51,2.51,0,0,1,2.05-2.47l3.59-.67a2.63,2.63,0,0,0,2.11-2.14l1.54-9.07a2.51,2.51,0,0,1,2.48-2.09h.24a2.51,2.51,0,0,1,2.51,2.51v9.1a1.54,1.54,0,0,0,1.54,1.54h9.75a2.51,2.51,0,0,1,2.51,2.51V189a2.51,2.51,0,0,1-2.51,2.51h-8.78a2.51,2.51,0,0,0-2.51,2.51v28c0,5.61,2.85,7.91,7.27,7.91a19.12,19.12,0,0,0,4.62-.5,3.6,3.6,0,0,1,4.28,2.29h0a2.51,2.51,0,0,1-1.54,3.21,26.9,26.9,0,0,1-8.91,1.26C382.06,236.22,377.55,231.89,377.55,222.41Z"/>
  </g>
</svg>
